<svg width="1920" height="1080" fill="none" xmlns="http://www.w3.org/2000/svg"><g style="mix-blend-mode:color-dodge" opacity=".1" stroke="#E2E2E4" stroke-width=".742" stroke-linecap="round" stroke-linejoin="round" clip-path="url(#a)"><path d="m1873.96 26.255-43.87 7.205m-3.04-7.205-37.57 14.654m-9.34-14.654-29.1 19.783m-17.59-19.783-20.63 22.958m-26.28-22.958-13.03 24.668m-33.88-24.668-7.16 25.4m-39.75-25.4-3.47 25.645m-43.22-25.645L1544.3 51.9m-45.18-25.645-1.95 25.645m-44.95-25.645-3.7 25.645m-43.21-25.645-6.95 25.4m-39.74-25.4-11.95 24.79m-34.96-24.79-17.81 23.69m-29.1-23.69-24.32 21.737m-22.59-21.737-31.06 18.806m-15.63-18.806-37.57 14.654m-9.34-14.654-42.57 9.403m-4.34-9.403-45.39 2.93m-1.52-2.93-44.953-4.396m-1.737 4.396L943.386 14.41m-6.515 11.845L905.599 7.571m-15.636 18.684-17.157-23.69m-29.535 23.69V.611m-46.909 25.644 18.46-23.446m-65.368 23.446 34.53-16.73m-81.439 16.73 44.303-6.228m-90.995 6.228 44.303 5.984m-91.211-5.984 34.095 17.096m-81.004-17.096 15.419 24.18m-62.328-24.18 7.167 25.4m-53.858-25.4 27.363 20.638m-74.272-20.638 40.828 11.48m-87.737-11.48 45.606.61m-92.514-.61 42.348-9.647m-89.04 9.647 33.01-17.585m-79.919 17.585 21.283-22.714m-68.191 22.714L196.322 1.1m-56.03 25.155L138.337.611M93.6 26.255 82.525 1.343M46.692 26.255 28.666 2.687M1873.96 52.632l-42.35 9.648m-4.56-9.648-35.83 15.875m-11.08-15.875-27.8 20.394m-18.89-20.394-19.98 23.08m-26.93-23.08L1673.51 77.3m-33.88-24.668-7.6 25.4m-39.31-25.4-3.69 25.645m-43-25.645-1.73 25.645m-45.18-25.645-1.08 25.645m-45.82-25.645-2.18 25.645m-44.73-25.645-4.35 25.523m-42.34-25.523-8.04 25.279m-38.87-25.279L1298.89 77.3m-34.09-24.668-18.24 23.569m-28.67-23.569-24.32 21.737m-22.37-21.737-30.62 19.05m-16.29-19.05-36.7 15.387m-10.21-15.387-41.7 10.502m-5.21-10.502-44.735 4.64m-1.955-4.64-45.606-2.198m-1.303 2.198-42.565-9.403m-4.343 9.403L854.998 36.27m-11.727 16.362L820.034 30.53m-23.672 22.102-7.166-25.4m-39.742 25.4 11.075-24.911m-57.984 24.911 28.449-20.149m-75.141 20.149 41.046-11.234m-87.954 11.234 45.605.489m-92.514-.489 40.176 12.334m-87.085-12.334 25.192 21.493m-71.883-21.493 4.343 25.523m-51.252-25.523 16.939 23.813m-63.848-23.813 34.096 17.219M327.71 52.632l43.868 7.45m-90.56-7.45 45.389-2.808m-92.298 2.808L274.72 40.91m-87.519 11.722 31.706-18.44m-78.615 18.44 21.065-22.835M93.6 52.632l10.424-25.034M46.692 52.632l1.085-25.644M1873.96 79.01l-41.7 10.502m-5.21-10.502-35.4 16.119m-11.51-16.119-28.01 20.27m-18.68-20.27-20.85 22.835m-26.06-22.835-14.33 24.423m-32.58-24.423-8.68 25.156m-38.23-25.156-4.77 25.522m-41.92-25.522-2.17 25.644m-44.74-25.644-.86 25.644m-46.04-25.644-.87 25.644m-46.04-25.644-1.96 25.644m-44.73-25.644-4.57 25.522m-42.34-25.522-7.82 25.278M1264.8 79.01l-12.16 24.789m-34.75-24.789-17.16 23.812M1171.2 79.01l-23.02 22.225m-23.89-22.225-28.88 19.904m-18.03-19.904-34.75 16.73m-12.16-16.73-39.74 12.455m-6.95-12.455-43.868 7.082m-3.041-7.082-45.605.854m-1.303-.854-44.303-6.228m-2.389 6.228L804.18 65.577m-7.818 13.433-29.1-19.783M749.454 79.01l-14.768-24.302M702.545 79.01l2.606-25.645M655.853 79.01l20.632-22.958m-67.54 22.958 36.05-15.754M562.036 79.01l44.737-5.252m-91.646 5.252 44.086 6.716m-90.777-6.716 33.661 17.218m-80.57-17.218 16.071 24.057m-62.98-24.057 4.778 25.522M327.71 79.01l24.105 21.858M281.018 79.01l37.788 14.287M234.109 79.01l44.737 5.006m-91.645-5.006 45.171-4.275m-92.08 4.275 40.393-12.212M93.6 79.01l32.359-18.196M46.692 79.01l23.454-22.104m1803.814 48.481-42.13 10.013m-4.78-10.013-36.48 15.386m-10.43-15.386-29.97 19.294m-16.72-19.294-23.24 22.103m-23.67-22.103-16.94 23.812m-29.97-23.812-11.29 24.789m-35.62-24.789-6.94 25.278m-39.75-25.278-3.69 25.522m-43.22-25.522-1.52 25.644m-45.38-25.644-.66 25.644m-46.25-25.644-.65 25.644m-46.04-25.644-1.74 25.644m-45.17-25.644-3.91 25.522m-43-25.522-6.73 25.4m-40.18-25.4-10.42 24.912m-36.27-24.912-15.2 24.179m-31.71-24.179-20.41 22.958m-26.5-22.958-25.84 21.126m-21.07-21.126-31.705 18.439m-14.985-18.439-37.353 14.776m-9.556-14.776L894.74 115.4m-4.777-10.013-44.954 4.152m-1.738-4.152-45.606-2.687m-1.303 2.687-42.131-9.892m-4.777 9.892-34.53-16.852m-12.379 16.852-21.934-22.592m-24.758 22.592-5.863-25.523m-41.045 25.523 12.378-24.79m-59.287 24.79 29.535-19.661m-76.444 19.661 41.697-10.624m-88.388 10.624 45.605.732m-92.514-.732 40.394 11.967m-87.303-11.967 26.712 20.76m-73.62-20.76 8.035 25.278m-54.727-25.278 11.51 24.789m-58.419-24.789 28.45 20.027m-75.358-20.027 39.742 12.578m-86.651-12.578 45.171 4.03m-91.863-4.03 44.954-4.274m-91.862 4.274 41.045-11.235m1786.223 37.49-43.43 8.182m-3.48-8.182-39.09 13.433m-7.82-13.433-33.22 17.585m-13.47-17.585-27.36 20.637m-19.55-20.637-21.06 22.836m-25.85-22.836-15.42 24.179m-31.49-24.179-10.64 25.034m-36.05-25.034-6.73 25.4m-40.18-25.4-3.69 25.644m-43.21-25.644-1.74 25.644m-45.17-25.644-.44 25.766m-46.25-25.766-.44 25.766m-46.47-25.766-1.09 25.766m-45.82-25.766-2.61 25.644m-44.3-25.644-5 25.522m-41.69-25.522-8.25 25.278m-38.66-25.278-12.38 24.789m-34.53-24.789-16.94 23.813m-29.97-23.813-22.37 22.347m-24.32-22.347-28.449 20.149m-18.46-20.149-34.095 17.096m-12.813-17.096-39.525 12.944m-7.167-12.944-43.868 7.571m-3.041-7.571-45.605.977m-1.303-.977-44.303-6.228m-2.606 6.228-38.656-13.555m-8.036 13.555-28.449-20.149m-18.459 20.149-13.682-24.546m-33.227 24.546 4.126-25.523m-51.035 25.523 22.152-22.47m-68.843 22.47 36.484-15.265m-83.393 15.265 44.737-5.129m-91.646 5.129 44.303 6.106m-91.211-6.106 35.615 16.119m-82.307-16.119 20.197 23.08m-67.106-23.08 1.955 25.644m-48.863-25.644 15.853 24.179m-62.762-24.179 30.621 19.172M93.6 131.642l40.177 12.211m-87.085-12.211 44.954 4.518m1782.314 21.859-44.95 4.518m-1.96-4.518-42.13 9.891m-4.78-9.891-37.79 14.41m-8.9-14.41-32.57 18.073m-14.34-18.073-26.93 20.76m-19.98-20.76-21.28 22.714m-25.63-22.714-16.07 24.057m-30.62-24.057-11.51 24.912m-35.4-24.912-7.6 25.278m-39.3-25.278-4.56 25.522m-42.35-25.522-2.17 25.644m-44.52-25.644-.87 25.644m-46.04-25.644-.22 25.644m-46.69-25.644-.44 25.644m-46.47-25.644-1.3 25.644m-45.39-25.644-3.26 25.644m-43.65-25.644-5.86 25.522m-41.05-25.522-9.34 25.156m-37.57-25.156-13.68 24.545m-33.01-24.545-18.894 23.446m-28.015-23.446-24.54 21.615m-22.368-21.615-30.621 19.05m-16.071-19.05-36.702 15.265m-10.207-15.265-41.913 10.38m-4.995-10.38-44.954 4.274m-1.955-4.274-45.389-2.931m-1.303 2.931-41.913-10.502m-4.995 10.502-33.444-17.585m-13.465 17.585-20.197-22.958m-26.712 22.958-3.692-25.644m-42.999 25.644 14.116-24.423m-61.025 24.423 30.187-19.294m-77.096 19.294 41.48-10.746m-88.388 10.746 45.822-.244m-92.514.244 41.697 10.258m-88.606-10.258 31.056 18.806m-77.964-18.806 15.636 24.179m-62.545-24.179 1.737 25.644M93.6 158.019l17.591 23.691m-64.499-23.691 30.838 18.928m1796.43 7.449-45.82-.733m-1.09.733-44.95 4.763m-1.96-4.763-42.13 9.77m-4.56-9.77-38.44 13.921m-8.47-13.921-33.66 17.341m-13.25-17.341-28.45 20.027m-18.46-20.027-23.23 22.103m-23.46-22.103-18.46 23.569m-28.45-23.569-13.68 24.424m-33.22-24.424-9.78 25.034m-37.13-25.034-6.3 25.4m-40.39-25.4-3.7 25.523m-43.21-25.523-1.74 25.645m-45.17-25.645-.44 25.645m-46.47-25.645v25.645m-46.69-25.645-.44 25.645m-46.47-25.645-1.74 25.645m-45.17-25.645-3.69 25.523m-43.22-25.523-6.73 25.4m-39.96-25.4-10.858 24.912m-36.051-24.912-15.636 24.057m-31.272-24.057L868.68 207.11m-25.409-22.714-27.798 20.394m-19.111-20.394-34.095 17.097m-12.813-17.097-39.742 12.578m-7.167-12.578-44.085 6.717m-2.607-6.717-45.822-.122m-1.086.122-43.651-7.693m-3.258 7.693-37.136-15.02m-9.773 15.02-25.843-21.126m-20.848 21.126-11.076-24.912m-35.833 24.912 6.081-25.522m-52.99 25.522 22.803-22.347m-69.711 22.347 36.267-15.631m-82.959 15.631 44.086-6.594m-90.995 6.594 45.172 3.542m-92.08-3.542 39.307 12.945m-86.216-12.945 28.015 20.272M93.6 184.396l12.813 24.668m-59.721-24.668 3.257 25.645m1824.011.732-43.87-7.327m-3.04 7.327-45.6-1.953m-1.31 1.953-45.17 3.298m-1.52-3.298-43.43 7.938m-3.48-7.938-40.17 12.212m-6.74-12.212-36.05 15.631m-10.86-15.631-31.48 18.562m-15.21-18.562-26.71 20.882m-20.2-20.882-21.71 22.592m-25.19-22.592-16.94 23.813m-29.97-23.813-12.6 24.668m-34.09-24.668-8.91 25.156m-38-25.156-5.65 25.401m-41.26-25.401-3.04 25.523m-43.87-25.523-1.3 25.645m-45.39-25.645-.44 25.645m-46.47-25.645v25.645m-46.91-25.645-.87 25.645m-46.04-25.645-2.39 25.645m-44.3-25.645-5.212 25.401m-41.697-25.401-8.904 25.156m-38.004-25.156-13.682 24.424m-33.01-24.424-19.545 23.203m-27.364-23.203L770.519 231.9m-21.065-21.127-32.359 18.074m-14.55-18.074-38.439 13.8m-8.253-13.8-43.216 8.426m-3.692-8.426-45.606 1.832m-1.303-1.832-44.737-5.495m-2.172 5.495-39.742-12.7m-6.949 12.7-30.621-19.172m-16.288 19.172-17.591-23.812m-29.318 23.812-1.737-25.766m-45.171 25.766 14.55-24.423m-61.242 24.423 29.101-19.783m-76.01 19.783 39.96-12.455m-86.868 12.455 45.388-3.419m-92.297 3.419 44.52 6.106M93.6 210.773l37.353 14.654m-84.261-14.654L72.535 231.9m1801.425 5.128-37.79-14.409m-9.12 14.409-42.35-9.525m-4.56 9.525-44.95-4.518m-1.74 4.519-45.82.366m-1.09-.366-44.73 5.006m-2.18-5.006-42.56 9.28m-4.35-9.28-39.3 13.066m-7.39-13.066-35.4 16.363m-11.51-16.363-30.83 19.05m-16.07-19.05-26.06 21.126m-20.85-21.126-21.07 22.835m-25.62-22.835-16.51 23.934m-30.4-23.934-12.16 24.789m-34.75-24.789-8.47 25.278m-38.44-25.278-5.21 25.522m-41.48-25.522-3.04 25.644m-43.87-25.644-1.52 25.644m-45.39-25.644-.87 25.766m-46.04-25.766-1.3 25.644m-45.39-25.644-2.823 25.644m-44.086-25.644-5.429 25.522m-41.479-25.522-9.121 25.156m-37.571-25.156-13.899 24.545m-33.01-24.545-19.545 23.324m-27.363-23.324-25.626 21.248m-21.283-21.248-31.924 18.317m-14.768-18.317-38.004 14.287m-8.904-14.287-42.783 9.28m-4.126-9.28-45.389 3.175m-1.52-3.176-45.171-3.663m-1.52 3.663-41.697-10.624m-5.212 10.624-34.313-16.974m-12.596 16.974-23.237-22.103m-23.671 22.103-9.556-25.033m-37.136 25.033 5.646-25.4m-52.555 25.4 20.414-22.957m-67.322 22.958 33.227-17.585m-80.136 17.584 42.131-10.013M93.6 237.029l45.606-1.1m-92.514 1.1 43.434 7.937m1783.834 18.44-26.71-20.882m-20.2 20.882-33.88-17.219m-13.03 17.219-39.52-12.945m-7.17 12.945-43.22-8.426m-3.69 8.426-45.17-3.786m-1.74 3.786-45.6.855m-1.31-.855-44.73 5.251m-1.96-5.251-42.56 9.281m-4.35-9.281-39.3 13.066m-7.6-13.066-35.19 16.241m-11.72-16.241-30.62 19.05m-16.07-19.05-25.85 21.248m-21.06-21.248-20.85 22.836m-26.06-22.836-16.07 24.057m-30.84-24.057-11.73 24.789m-34.96-24.789-8.47 25.278m-38.44-25.278-5.65 25.522m-41.26-25.522-3.91 25.522m-43-25.522-3.26 25.644m-43.43-25.644-3.909 25.644m-43-25.644-5.646 25.522m-41.262-25.522-8.253 25.278m-38.439-25.278-12.161 24.789m-34.748-24.789-16.722 23.935m-30.186-23.935-21.935 22.591m-24.974-22.591-27.581 20.515m-19.111-20.515-33.444 17.585m-13.464-17.585-38.657 13.799m-8.252-13.799-42.783 9.159m-4.126-9.159-45.171 3.663m-1.52-3.663-45.606-2.443m-1.303 2.443-43-8.793m-3.909 8.793-37.353-14.776m-9.555 14.776-28.45-20.027m-18.242 20.027-17.156-23.813m-29.753 23.813-3.692-25.645m-43.216 25.645 10.858-24.912m-57.767 24.912 24.54-21.615M93.6 263.406l35.833-15.875m-82.741 15.875 43.434-8.06m1783.834 34.437-10.86-25.034m-36.05 25.034-20.2-23.08m-26.71 23.08-28.01-20.271m-18.68 20.271-34.53-16.852m-12.38 16.852-39.52-12.944m-7.39 12.944-43-8.67m-3.91 8.67-44.95-4.274m-1.74 4.274-45.82.366m-1.09-.366-44.95 4.762m-1.95-4.762-42.79 9.037m-4.12-9.037L1366 302.727m-7.38-12.944-35.19 16.364m-11.72-16.364-30.41 19.172m-16.5-19.172-25.19 21.37m-21.72-21.37-20.41 22.958m-26.28-22.958-16.29 23.935m-30.62-23.935-12.81 24.667m-34.1-24.667-10.21 25.034m-36.7-25.034-8.9 25.156m-37.79-25.156-8.687 25.156m-38.222-25.156-9.555 25.034m-37.353-25.034-11.51 24.79m-35.182-24.79-14.55 24.301m-32.359-24.301-18.025 23.568m-28.883-23.568-22.152 22.469m-24.757-22.469-26.712 20.76m-19.98-20.76-31.489 18.684m-15.419-18.684-35.833 15.875m-11.076-15.875-39.959 12.456m-6.95-12.456-43.217 8.304m-3.474-8.304-45.389 3.663m-1.52-3.663-45.606-1.465m-1.303 1.465-43.868-6.961m-3.04 6.961-39.96-12.456m-6.732 12.456-33.661-17.463m-13.248 17.463-24.323-21.737m-22.585 21.737-12.813-24.668m-34.096 24.668.651-25.767M93.6 289.783l14.333-24.424m-61.241 24.424 27.58-20.516m1799.688 46.771 7.38-25.278m-54.29 25.278-2.39-25.645m-44.52 25.645-11.51-24.79m-35.18 24.79-19.98-23.08m-26.93 23.08L1659.4 295.4m-19.77 20.638-33.44-17.463m-13.47 17.463-38.43-13.677m-8.26 13.677-42.56-9.403m-4.35 9.403-44.95-4.763m-1.95 4.763-45.61.122m-1.3-.122-44.74 4.885m-1.95-4.885-42.57 9.403m-4.34-9.403-38.88 13.433m-8.03-13.433-34.53 16.852m-12.38-16.852-29.97 19.417m-16.72-19.417-25.63 21.37m-21.28-21.37-21.94 22.592m-24.97-22.592-19.11 23.324m-27.8-23.324-17.37 23.813m-29.32-23.813-16.939 23.935m-29.97-23.935-17.59 23.813m-29.318-23.813-18.894 23.446m-27.798-23.446-21.065 22.836m-25.844-22.836-23.671 21.981m-23.237-21.981-26.712 20.882m-20.197-20.882-29.752 19.539m-16.94-19.539-33.009 17.829m-13.899-17.829-36.051 15.753m-10.858-15.753-39.091 13.433m-7.818-13.433-41.479 10.624m-5.212-10.624-43.869 7.449m-3.04-7.449-45.171 3.786m-1.738-3.786-45.605-.366m-1.303.366-44.737-4.763m-1.955 4.763-42.565-9.525m-4.344 9.525-37.787-14.288m-9.121 14.288-30.839-18.806m-16.07 18.806-21.283-22.592M93.6 316.038l-9.772-25.034m-37.136 25.034 4.126-25.522m1823.142 51.899 24.76-21.492m-71.67 21.492 16.07-24.057m-62.98 24.057 7.39-25.278m-54.08 25.278-1.52-25.644m-45.39 25.644-9.77-25.034m-37.14 25.034-17.59-23.69m-29.32 23.69-25.19-21.37m-21.5 21.37-32.14-18.317m-14.77 18.317-38-14.287m-8.9 14.287-42.35-9.647m-4.56 9.647-44.96-4.518m-1.73 4.518-45.83.733m-1.08-.733-44.52 5.74m-2.39-5.74-41.92 10.136m-4.99-10.136-38.44 13.799m-8.25-13.799-34.97 16.608m-11.94-16.608-31.71 18.44m-15.2-18.44-29.32 19.661m-17.59-19.661-27.8 20.272m-18.89-20.272-27.581 20.516m-19.328-20.516-28.232 20.272m-18.676-20.272-29.318 19.783m-17.374-19.783-31.055 18.928m-15.854-18.928-32.575 18.073m-14.333-18.073-34.313 16.974m-12.596-16.974-35.833 15.875m-10.859-15.875-37.57 14.654m-9.338-14.654-39.091 13.311m-7.818-13.311-40.394 11.968m-6.515-11.968-41.696 10.38m-4.995-10.38-43.217 8.548m-3.692-8.548-44.303 6.472m-2.606-6.472-45.171 4.03m-1.737-4.03-45.606 1.099m-1.086-1.099-45.606-2.32m-1.303 2.32-44.302-6.35m-2.607 6.35-41.479-10.746m-5.429 10.746-36.485-15.387M93.6 342.415l-29.318-19.783m-17.591 19.783-18.893-23.446m1846.162 49.823 38-14.287m-84.91 14.287 31.71-18.439m-78.62 18.439 24.76-21.614m-71.45 21.614 17.37-23.69m-64.28 23.69 9.77-25.156m-56.68 25.156 1.52-25.644m-48.43 25.644-6.94-25.4m-39.75 25.4-15.85-24.179m-31.06 24.179-24.32-21.736m-22.58 21.736-32.15-18.195m-14.76 18.195-38.44-13.799m-8.25 13.799-43.22-8.548m-3.69 8.548-45.39-3.175m-1.52 3.175-45.61 1.832m-1.3-1.832-44.3 6.228m-2.39-6.228-42.35 9.648m-4.56-9.648-40.39 12.09m-6.52-12.09-38.87 13.555m-8.04-13.555-38.003 14.044m-8.687-14.044-38.439 14.044m-8.47-14.044-38.873 13.433m-8.035-13.433-39.742 12.456m-6.95-12.456-41.045 11.479m-5.864-11.479-41.696 10.502m-5.212-10.502-42.348 9.648m-4.561-9.648-42.783 9.037m-3.909-9.037-43.216 8.549m-3.692-8.549-43.217 8.182m-3.692-8.182-43.434 8.06m-3.475-8.06-43.434 7.816m-3.257-7.816-43.869 7.449m-3.04-7.449-44.086 6.961m-2.823-6.961-44.302 6.106m-2.606-6.106-44.737 4.885m-1.955-4.885-45.389 3.053m-1.52-3.053-45.605.489m-1.303-.489-45.389-2.686m-1.52 2.686-44.086-6.716m-2.606 6.716-41.045-11.356m-5.863 11.356-35.4-16.363M1873.96 395.17l44.74-5.007m-91.65 5.007 41.92-10.258m-88.83 10.258 37.79-14.41m-84.48 14.41 32.79-17.952m-79.7 17.952 26.93-20.76m-73.84 20.76 20.2-23.08m-67.11 23.08 12.38-24.79m-59.07 24.79 3.26-25.645m-50.17 25.645-6.51-25.401m-40.39 25.401-16.73-23.935m-30.18 23.935-26.28-21.004m-20.41 21.004-34.53-16.852m-12.38 16.852-40.4-11.968m-6.51 11.968-43.87-6.961m-3.04 6.961-45.39-2.443m-1.3 2.443-45.61 1.221m-1.3-1.221-45.17 3.663m-1.74-3.663-44.74 4.762m-2.17-4.762-44.735 4.884m-1.955-4.884-45.171 4.152m-1.738-4.152-45.388 2.808m-1.52-2.808-45.606 1.465m-1.086-1.465-45.823.122m-1.086-.122-45.605-.733m-1.303.733-45.606-1.222m-1.303 1.222-45.606-1.099m-1.086 1.099-45.822-.611m-1.086.611-45.823.366m-1.086-.366-45.606 1.587m-1.303-1.587-45.388 2.93m-1.303-2.93-45.172 4.152m-1.737-4.152-44.737 5.373m-2.172-5.373-44.302 6.228m-2.606-6.228-44.086 6.594m-2.606-6.594-44.303 6.472m-2.606-6.472-44.52 5.617m-2.388-5.617-45.172 3.907m-1.737-3.907-45.606 1.221M93.6 395.17l-45.605-2.443m-1.303 2.443-43.869-7.205m1871.137 33.46 44.95 4.518m-91.86-4.518 45.61-.855m-92.52.855 44.74-5.496m-91.43 5.496 42.35-9.525m-89.26 9.525 39.09-13.067m-86 13.067 34.75-16.608m-81.66 16.608 29.11-19.783m-75.8 19.783 21.29-22.714m-68.2 22.714 11.95-24.79m-58.85 24.79 1.08-25.645m-47.99 25.645-10.21-24.912m-36.48 24.912-21.29-22.714m-25.62 22.714-30.41-19.173m-16.5 19.173-36.92-15.021m-9.99 15.021-41.26-10.991m-5.43 10.991-43.65-7.694m-3.26 7.694-44.52-5.862m-2.39 5.862-44.74-5.251m-2.17 5.251-44.301-6.106m-2.389 6.106-43.651-7.694m-3.258 7.694-42.348-9.648m-4.56 9.648-40.828-11.479m-5.864 11.479-39.742-12.823m-7.167 12.823-38.873-13.433m-8.035 13.433-38.874-13.433m-8.035 13.433-39.742-12.7m-6.95 12.7-41.045-11.235m-5.863 11.235-42.566-9.281m-4.343 9.281-44.085-6.717m-2.824 6.717-45.171-3.908m-1.52 3.908-45.823-.855m-1.086.855-45.606 2.076m-1.303-2.076-44.954 4.64m-1.954-4.64-44.086 6.716m-2.606-6.716-43.434 8.181m-3.475-8.181-42.782 8.914m-4.126-8.914-43 8.792m-3.909-8.792-43.651 7.571m-3.041-7.571-44.737 5.251m-2.172-5.251-45.605 1.587m1872.874 24.79 39.74 12.578m-86.65-12.578 43.65 7.693m-90.56-7.693 45.39 3.419m-92.08-3.419 45.61-.489m-92.52.489 44.96-4.274m-91.87 4.274 43.44-8.182m-90.35 8.182 40.18-12.212m-86.87 12.212 34.97-16.364m-81.88 16.364 27.8-20.394m-74.7 20.394 18.24-23.569m-65.15 23.569 6.73-25.4m-53.42 25.4-5.43-25.522m-41.48 25.522-16.51-23.935m-30.4 23.935-25.63-21.248m-21.28 21.248-31.92-18.318m-14.77 18.318-35.84-15.997m-11.07 15.997-37.14-14.898m-9.77 14.898-36.7-15.143m-10.21 15.143-34.746-16.608m-11.944 16.608-31.272-18.684m-15.637 18.684-26.929-20.76m-19.979 20.76-23.02-22.103m-23.672 22.103-20.631-22.958m-26.278 22.958L776.817 424.6m-27.363 23.202-20.414-22.958m-26.495 22.958-23.02-22.103m-23.672 22.103-27.146-20.76m-19.762 20.76-31.707-18.562m-15.202 18.562-36.485-15.509m-10.424 15.509-40.611-11.723m-6.08 11.723-43.869-7.449m-3.04 7.449-45.389-2.931m-1.52 2.931-45.605 1.465m-1.303-1.465-44.52 5.373m-2.172-5.373-43.217 8.426m-3.692-8.426-41.696 10.624m-5.212-10.624-40.394 11.845m-6.515-11.845-40.177 12.089M93.6 447.802l-41.262 11.112m-5.646-11.112-43 8.792m1870.268 17.585 31.27 18.684m-78.18-18.684 37.57 14.654m-84.48-14.654 41.26 10.991m-87.95-10.991 43.44 7.571m-90.35-7.571 44.96 4.274m-91.87-4.274 45.61.611m-92.52-.611 45.39-3.541m-92.08 3.541 43.22-8.304m-90.13 8.304 38.88-13.433m-85.78 13.433 31.92-18.439m-78.83 18.439 22.15-22.469m-68.84 22.469 10.64-25.034m-57.55 25.034-1.09-25.644m-45.82 25.644-11.08-24.912m-35.83 24.912-18.46-23.446m-28.23 23.446-23.02-22.225m-23.89 22.225-24.11-21.859m-22.8 21.859-21.93-22.469m-24.98 22.469-16.94-23.813m-29.75 23.813-9.99-25.034m-36.919 25.034-2.606-25.644m-44.302 25.644 3.04-25.644m-49.732 25.644 6.081-25.522m-52.99 25.522 6.733-25.4m-53.641 25.4 4.777-25.522m-51.686 25.522.434-25.644m-47.126 25.644-5.863-25.522m-41.045 25.522-13.682-24.545m-33.227 24.545-22.369-22.347m-24.54 22.347-30.838-18.928m-15.853 18.928-38.005-14.288m-8.904 14.288-43-8.67m-3.909 8.67-45.388-2.809m-1.52 2.809-45.389 2.687m-1.303-2.687-43.868 7.449m-3.041-7.449-41.262 11.113m-5.646-11.113-38.657 13.677m-8.252-13.677-36.919 15.02m-9.773-15.02-36.919 15.265m-9.989-15.265L8.687 488.345m1865.273 12.211 21.5 22.592m-68.41-22.592 29.54 19.539m-76.45-19.539 34.75 16.73m-81.44-16.73 38.01 14.166m-84.92-14.166 40.83 11.479m-87.74-11.479 43.22 8.426m-90.13-8.426 44.96 4.641m-91.65-4.641h45.61m-92.52 0 44.52-5.495m-91.42 5.495 41.04-11.479m-87.95 11.479 34.31-17.096m-81 17.096 24.75-21.614m-71.66 21.614 14.11-24.423m-61.02 24.423 4.34-25.644m-51.25 25.644-3.04-25.644m-43.65 25.644-7.17-25.4m-39.74 25.4-7.17-25.4m-39.74 25.4-3.26-25.644m-43.65 25.644 4.56-25.644m-51.25 25.644 13.899-24.545m-60.808 24.545 22.586-22.347m-69.494 22.347 27.797-20.393m-74.489 20.393 29.97-19.416m-76.879 19.416 29.97-19.416m-76.878 19.416 27.797-20.393m-74.706 20.393 23.454-22.103m-70.146 22.103 16.288-24.057m-63.196 24.057 6.732-25.4m-53.641 25.4-4.561-25.644m-42.348 25.644-16.722-23.935m-29.969 23.935-28.667-20.149m-18.242 20.149-37.788-14.41m-9.121 14.41-43.651-7.693m-3.257 7.693-45.606-.732m-1.086.732-44.52 5.618m-2.389-5.618-41.479 10.747m-5.429-10.747-37.571 14.532m-9.338-14.532-34.313 16.852M93.6 500.556l-32.792 17.951m-14.116-17.951-32.793 17.829m1860.061 8.426 11.94 24.79m-58.85-24.79 21.07 22.836m-67.98-22.836 26.93 20.76m-73.62-20.76 30.84 18.928m-77.75-18.928 34.32 16.975m-81.23-16.975 37.57 14.654m-84.48-14.654 40.83 11.724m-87.52-11.724 43.65 7.572m-90.56-7.572 45.39 2.443m-92.29-2.443 45.17-3.663m-92.08 3.663 41.91-10.135m-88.6 10.135 35.61-15.997m-82.52 15.997 27.36-20.515m-74.27 20.515 19.11-23.324m-66.02 23.324 12.6-24.667m-59.29 24.667 9.34-25.034m-56.25 25.034 10.42-24.911m-57.33 24.911 15.64-24.057m-62.55 24.057 23.89-21.858m-70.58 21.858 33.23-17.584m-80.139 17.584 39.742-12.7m-86.65 12.7 42.348-9.647m-89.04 9.647 43.217-8.181m-90.126 8.181 43-8.426m-89.908 8.426 41.913-10.257m-88.822 10.257 39.091-13.432m-85.783 13.432 33.445-17.34m-80.353 17.34 24.974-21.492m-71.883 21.492 13.247-24.545m-60.156 24.545-1.303-25.644m-45.388 25.644-16.722-23.935m-30.187 23.935-30.187-19.172m-16.722 19.172-39.959-12.333m-6.949 12.333-44.955-4.274m-1.737 4.274-45.389 3.42m-1.52-3.42-42.131 9.892m-4.777-9.892-37.354 14.777m-9.555-14.777-32.576 17.952M93.6 526.811l-29.318 19.783m-17.59-19.783-27.798 20.394m1855.066 5.983 3.26 25.645m-50.17-25.645 13.03 24.668m-59.94-24.668 19.55 23.203m-66.24-23.203 23.67 21.981m-70.58-21.981 27.15 20.638m-74.06-20.638 30.62 19.051m-77.53-19.051 34.53 16.853m-81.22-16.853 38.66 13.678m-85.57-13.678 42.57 9.159m-89.47-9.159 45.17 3.542m-92.08-3.541 45.39-2.931m-92.08 2.931 42.34-9.403m-89.25 9.403 37.35-14.777m-84.26 14.777 31.27-18.684m-78.18 18.684 26.49-21.004m-73.18 21.004 24.32-21.737m-71.23 21.737 26.06-21.127m-72.97 21.127 31.06-18.929m-77.97 18.929 37.57-14.654m-84.26 14.654 43.22-8.304m-90.129 8.304 45.606-2.198m-92.514 2.197 45.605 1.344m-92.297-1.344 45.172 2.931m-92.081-2.931 45.389 2.687m-92.297-2.687 45.605.611m-92.514-.61 45.388-3.175m-92.08 3.175 43-8.549m-89.908 8.549 37.353-14.654m-84.262 14.654 27.363-20.516m-74.272 20.516 13.03-24.668m-59.721 24.668-4.344-25.523m-42.565 25.523-21.5-22.714m-25.409 22.714-35.181-16.364m-11.727 16.364-43.434-7.938m-3.258 7.937-45.823.855m-1.086-.855-42.999 8.549m-3.909-8.549-37.788 14.532m-9.121-14.532-31.707 18.44M93.6 553.188 66.671 574.07m-19.979-20.882-23.89 21.981m1851.158 4.397 3.69 25.522m-50.6-25.522 6.3 25.4m-53.21-25.4 13.03 24.545m-59.72-24.545 17.16 23.813m-64.07-23.813 20.42 22.958m-67.33-22.958 23.68 21.981m-70.59-21.981 27.8 20.393m-74.49-20.393 32.36 18.073m-79.27-18.073 37.57 14.654m-84.47-14.654 42.13 9.769m-89.04-9.769 45.17 3.908m-91.86-3.908 45.38-2.32m-92.29 2.32 43.43-8.06m-90.34 8.06 39.96-12.456m-86.87 12.456 37.14-15.143m-83.83 15.143 35.83-15.875m-82.74 15.875 37.57-14.654m-84.48 14.654 41.05-11.357m-87.96 11.357 44.52-6.106m-91.21 6.106 45.61.366m-92.519-.366 44.303 6.228m-91.211-6.228 42.131 10.013m-88.823-10.013 40.611 11.723m-87.52-11.723 40.828 11.479m-87.736-11.479 42.348 9.525m-89.257-9.525 44.52 5.739m-91.212-5.739h45.606m-92.514 0 43.868-7.327m-90.777 7.327 36.919-15.143m-83.828 15.143 24.323-21.859m-71.014 21.859 6.515-25.4m-53.424 25.4-12.813-24.668m-34.096 24.668-29.969-19.417m-16.939 19.417-41.263-11.113m-5.429 11.113-45.606-1.588m-1.303 1.588-43.868 7.083m-3.041-7.083-38.221 13.921m-8.687-13.921-31.273 18.684M93.6 579.566l-25.19 21.492m-21.718-21.492L26.06 602.402m1847.9 3.541 9.77 25.034m-56.68-25.034.87 25.644m-47.78-25.644 7.82 25.278m-54.51-25.278 11.73 24.79m-58.64-24.79 14.77 24.301m-61.68-24.301 17.59 23.691m-64.5-23.691 21.29 22.714m-67.98-22.714 25.63 21.126m-72.54-21.126 31.49 18.562m-78.39-18.562 37.35 14.776m-84.26-14.776 42.13 9.891m-88.82-9.891 44.95 4.274m-91.86-4.274 45.6-1.221m-92.51 1.221 44.74-5.617m-91.65 5.617 43.43-8.182m-90.12 8.182 43-8.792m-89.91 8.792 43.87-7.083m-90.78 7.083 45.39-3.297m-92.3 3.297 45.61 2.198m-92.3-2.198 43.22 8.06m-90.129-8.06 39.308 12.944m-86.216-12.944 35.398 16.119m-82.09-16.119 33.227 17.585m-80.136-17.585 33.445 17.463m-80.353-17.463 36.05 15.753m-82.959-15.753 40.176 12.334m-86.868-12.334 44.086 6.716m-90.994-6.716 45.605-.977m-92.514.977 42.131-10.014m-89.04 10.014 31.924-18.562m-78.615 18.562 14.767-24.301m-61.676 24.301-5.864-25.522m-41.045 25.522-25.191-21.493m-21.717 21.493-38.874-13.433m-7.818 13.433-45.389-3.541m-1.52 3.541-44.52 5.862m-2.388-5.862-38.874 13.433m-8.035-13.433-31.273 18.684M93.6 605.943l-24.106 21.859m-22.803-21.859L28.45 629.389m1845.51 2.809 14.77 24.301m-61.68-24.301 3.69 25.645m-50.6-25.645 3.69 25.645m-50.38-25.645 7.6 25.4m-54.51-25.4 10.21 25.034m-57.12-25.034 12.6 24.668m-59.51-24.668 15.64 24.179m-62.33-24.179 19.77 23.202m-66.68-23.202 25.2 21.493m-72.1-21.493 31.49 18.684m-78.4-18.684 37.57 14.776m-84.26-14.776 41.91 10.014m-88.82-10.014 44.73 5.251m-91.64-5.251 45.6 1.221m-92.51-1.221 45.82-1.099m-92.51 1.099 45.6-1.465m-92.51 1.465 45.6.366m-92.51-.366 45.17 4.03m-92.08-4.03 43 9.037m-89.69-9.037 38.44 13.921m-85.349-13.921 33.01 17.707m-79.918-17.707 28.449 20.149m-75.141-20.149 25.843 21.126m-72.752-21.126 26.278 21.004m-73.186-21.004 29.752 19.539m-76.661-19.539 35.182 16.486m-81.874-16.486 41.046 11.235m-87.954-11.235 45.171 3.541m-92.08-3.541 44.303-5.984m-91.212 5.984 36.05-15.753m-82.741 15.753 19.979-23.08m-66.888 23.08-.869-25.644m-46.04 25.644-21.717-22.592m-25.191 22.592L290.573 617.3m-9.555 14.898-44.954-4.762m-1.955 4.762-44.737 5.007m-2.172-5.007-39.307 13.066m-7.601-13.066-31.273 18.806M93.6 632.198l-23.237 22.225m-23.671-22.225-16.505 23.935m1843.773 2.442 18.89 23.325m-65.8-23.325 7.17 25.4m-54.08-25.4.44 25.645m-47.13-25.645 4.56 25.523m-51.47-25.523 6.95 25.4m-53.86-25.4 8.69 25.156m-55.6-25.156 11.08 24.912m-57.77-24.912 14.55 24.301m-61.46-24.301 19.55 23.202m-66.45-23.202 25.62 21.249m-72.53-21.249 32.14 18.318m-78.83-18.318 37.57 14.532m-84.48-14.532 41.69 10.624m-88.6-10.624 43.87 7.205m-90.78-7.205 44.95 5.007m-91.64-5.007 44.73 4.763m-91.64-4.763 44.3 6.35m-91.21-6.35 42.35 9.647m-89.26-9.647 38.88 13.677m-85.57-13.677 33.23 17.585m-80.139-17.585 27.581 20.516m-74.489-20.516 23.02 22.225m-69.712-22.225 20.631 22.836m-67.54-22.836 21.5 22.592m-68.408-22.592 25.626 21.249m-72.535-21.249 31.924 18.44m-78.616-18.44 38.874 13.311m-85.782-13.311 44.52 5.618m-91.429-5.618 45.171-4.152m-92.08 4.152 37.788-14.409m-84.479 14.409 22.151-22.469m-69.06 22.469 1.086-25.644m-47.995 25.644-19.979-23.08m-26.929 23.08-36.268-15.509m-10.424 15.509-44.737-5.495m-2.172 5.495-44.954 4.641m-1.954-4.641-39.525 12.945m-7.384-12.945-31.055 18.806M93.6 658.575l-22.585 22.348m-24.323-22.348L31.49 682.754m1842.47 2.199 22.59 22.347m-69.5-22.347 10.21 25.033m-57.12-25.033 2.17 25.644m-48.86-25.644 2.17 25.644m-49.08-25.644 4.56 25.522m-51.47-25.522 6.08 25.4m-52.99-25.4 7.82 25.278m-54.51-25.278 10.43 24.911m-57.34-24.911 14.77 24.301m-61.67-24.301 20.41 22.957m-67.32-22.957 26.71 20.881m-73.4-20.881 32.57 17.951m-79.48-17.951 37.35 14.776m-84.26-14.776 40.61 11.845m-87.52-11.845 42.13 9.891m-88.82-9.891 42.35 9.525m-89.26-9.525 41.48 10.746m-88.39-10.746 39.09 13.31m-86-13.31 35.18 16.485m-81.87-16.485 29.75 19.416m-76.659-19.416 24.541 21.614m-71.449-21.614 20.414 22.957m-67.106-22.957 18.677 23.324m-65.586-23.324 20.197 22.957m-67.105-22.957 24.757 21.614m-71.666-21.614 31.49 18.683m-78.182-18.683 38.874 13.432m-85.782-13.432 44.52 5.617m-91.429-5.617 44.954-4.397m-91.863 4.397 37.571-14.654m-84.262 14.654 21.717-22.592m-68.626 22.591.651-25.766m-47.56 25.767-20.414-22.958m-26.494 22.958-36.485-15.387m-10.207 15.387-44.737-5.374m-2.172 5.374-44.954 4.64m-1.955-4.64-39.307 12.944m-7.601-12.944-30.838 18.805M93.6 684.953l-22.15 22.469m-24.758-22.469-14.334 24.423m1841.602 1.954 25.84 21.126m-72.75-21.126 13.03 24.545m-59.94-24.545 4.35 25.522m-51.04-25.522.65 25.644m-47.56-25.644 3.04 25.522m-49.95-25.522 4.13 25.522m-51.04-25.522 5.43 25.4m-52.12-25.4 7.39 25.278m-54.3-25.278 10.86 24.912m-57.76-24.912 15.85 24.057m-62.76-24.057 21.71 22.591m-68.4-22.591 27.58 20.393m-74.49-20.393 32.79 17.829m-79.7-17.829 36.7 15.264m-83.61-15.264 38.87 13.555m-85.56-13.555 39.31 12.944m-86.22-12.944 38.66 13.555m-85.57-13.555 36.48 15.386m-83.39-15.386 33.01 17.707m-79.7-17.707 28.45 20.027m-75.359-20.027 24.323 21.736m-71.231-21.736 21.282 22.713m-67.974-22.713 20.414 22.836m-67.323-22.836 22.369 22.347m-69.277-22.347 27.146 20.637m-74.055-20.637 33.879 17.218m-80.571-17.218 40.611 11.601m-87.519-11.601 45.171 3.419m-92.08-3.419 44.303-6.595m-91.212 6.595 35.399-16.364m-82.09 16.364 18.459-23.569m-65.368 23.569-2.389-25.645m-44.52 25.645-22.803-22.348M327.71 711.33l-37.788-14.532m-8.904 14.532-44.954-4.519m-1.955 4.519-44.737 5.251m-2.171-5.251-39.091 13.31m-7.818-13.31-30.404 19.05M93.6 711.33l-21.5 22.591M46.691 711.33l-13.464 24.545m1840.733 1.71 28.88 19.905m-75.79-19.905 15.64 24.179m-62.55-24.179 6.08 25.522m-52.77-25.522.44 25.766m-47.35-25.766 1.96 25.644m-48.87-25.644 3.04 25.644m-49.95-25.644 3.91 25.644m-50.6-25.644 5.22 25.522m-52.13-25.522 8.04 25.278m-54.94-25.278 12.37 24.789m-59.28-24.789 17.59 23.69m-64.28-23.69 23.23 22.103m-70.14-22.103 28.66 20.027m-75.57-20.027 32.79 17.951m-79.7-17.951 35.62 16.119m-82.31-16.119 36.7 15.142m-83.61-15.142 36.7 15.264m-83.61-15.264 35.4 16.363m-82.31-16.363 33.01 17.951m-79.7-17.951 29.75 19.538m-76.659-19.538 26.929 20.76m-73.837-20.76 25.191 21.492m-71.883-21.492 25.192 21.37m-72.101-21.37 27.798 20.393m-74.706-20.393 32.358 18.073m-79.267-18.073 38.439 14.043m-85.131-14.043 43.434 7.693m-90.342-7.693 45.605-.733m-92.514.733 41.914-10.258m-88.823 10.258 30.621-19.05m-77.312 19.05 12.813-24.546m-59.722 24.546-7.601-25.278m-39.308 25.278-26.494-20.882m-20.414 20.882-39.525-12.823m-7.167 12.823-45.389-3.053m-1.52 3.053-44.302 6.35m-2.606-6.35-38.44 13.921m-8.469-13.921-29.752 19.416M93.6 737.585l-20.848 22.958m-26.06-22.958-12.596 24.667m1839.864 1.71 31.71 18.44m-78.62-18.44 18.03 23.568m-64.94-23.568 7.82 25.278m-54.51-25.278 1.52 25.644m-48.43-25.644 1.09 25.644m-48-25.644 2.39 25.644m-49.3-25.644 3.05 25.644m-49.74-25.644 3.91 25.644m-50.82-25.644 6.09 25.4m-52.99-25.4 9.55 25.156m-56.46-25.156 14.33 24.423m-61.02-24.423 19.54 23.202m-66.45-23.202 24.97 21.492m-71.88-21.492 29.53 19.539m-76.44-19.539 33.01 17.707m-79.7-17.707 34.96 16.486m-81.87-16.486 35.83 15.997m-82.74-15.997 35.4 16.241m-82.31-16.241 34.31 16.974m-81-16.974 32.58 17.951m-79.489-17.951 31.49 18.684m-78.398-18.684 31.055 18.806m-77.747-18.806 31.924 18.317m-78.833-18.317 34.748 16.608m-81.656-16.608 38.873 13.555m-85.782-13.555 43 8.67m-89.692-8.67 45.389 1.832m-92.297-1.832 44.085-6.472m-90.994 6.472 36.919-15.02m-83.828 15.02 23.455-22.103m-70.146 22.103 4.995-25.522m-51.904 25.522-14.333-24.423m-32.576 24.423-30.838-18.928m-16.071 18.928-41.479-10.624m-5.212 10.624-45.606-1.221m-1.303 1.221-43.651 7.571m-3.257-7.571-37.354 14.654m-9.555-14.654-28.884 19.783M93.6 763.962l-19.98 23.08m-26.929-23.08-11.727 24.79m1838.996 1.587 34.31 16.852m-81.22-16.852 20.63 22.836m-67.54-22.836 9.56 25.156m-56.25-25.156 2.61 25.645m-49.52-25.645.65 25.645m-47.56-25.645 1.96 25.645m-48.87-25.645 2.61 25.645m-49.3-25.645 3.04 25.645m-49.95-25.645 4.78 25.523m-51.68-25.523 7.6 25.278m-54.51-25.278 11.72 24.79m-58.41-24.79 16.72 23.813m-63.63-23.813 21.93 22.47m-68.84-22.47 26.93 20.638m-73.84-20.638 31.05 18.806m-77.74-18.806 33.88 17.219m-80.79-17.219 35.61 15.997m-82.52-15.997 36.48 15.509m-83.39-15.509 36.7 15.387m-83.39-15.387 36.48 15.387m-83.389-15.387 36.702 15.387m-83.61-15.387 37.353 14.776m-84.045-14.776 38.656 13.433m-85.565-13.433 41.263 10.991m-88.171-10.991 43.868 7.083m-90.777-7.083 45.606 1.588m-92.298-1.588 44.52-5.251m-91.428 5.251 39.525-12.822m-86.434 12.822 29.101-19.783m-76.01 19.783 14.116-24.545m-60.807 24.545-4.127-25.644m-42.782 25.644-21.5-22.714m-25.409 22.714-35.181-16.485m-11.728 16.485-43.216-8.059m-3.475 8.059-45.823.733m-1.086-.733-42.782 8.915m-4.126-8.915-36.268 15.509m-10.641-15.509-28.015 20.272M93.6 790.339l-19.11 23.324m-27.798-23.324-11.076 24.912m1838.344 1.343 36.7 15.265m-83.61-15.265 23.02 22.225m-69.93-22.225 11.08 24.912m-57.77-24.912 3.26 25.645m-50.17-25.645.44 25.767m-47.35-25.767 2.18 25.767m-49.09-25.767 2.61 25.645m-49.3-25.645 2.83 25.645m-49.74-25.645 3.91 25.645m-50.81-25.645 6.29 25.523m-53.2-25.523 9.99 25.156m-56.68-25.156 14.55 24.424m-61.46-24.424 19.76 23.202m-66.67-23.202 24.97 21.615m-71.88-21.615 29.75 19.661m-76.44-19.661 33.22 17.707m-80.13-17.707 36.05 15.875m-82.96-15.875 37.79 14.41m-84.7-14.41 39.31 13.311m-86-13.311 39.96 12.334m-86.869-12.334 41.045 11.235m-87.953-11.235 42.348 9.77m-89.04-9.77 43.651 7.449m-90.56-7.449 44.955 4.152m-91.863-4.152 45.605-.366m-92.514.366 44.52-5.983m-91.212 5.983 39.96-12.334m-86.868 12.334 31.489-18.439m-78.398 18.439 19.111-23.324m-66.02 23.324 3.475-25.522m-50.166 25.522-13.248-24.545m-33.661 24.545-28.015-20.271m-18.894 20.271-38.873-13.433m-8.035 13.433-44.52-5.251m-2.172 5.251-45.389 2.931m-1.52-2.931-41.914 10.38m-4.994-10.38-35.182 16.486m-11.727-16.486-26.712 20.882M93.6 816.594l-18.242 23.569m-28.667-23.569-10.206 25.034m1837.475 1.343 38.66 13.555m-85.57-13.555 25.19 21.493m-72.1-21.493 12.6 24.668m-59.29-24.668 3.91 25.645m-50.82-25.645.44 25.767m-47.35-25.767 2.39 25.645m-49.3-25.645 3.05 25.645m-49.74-25.645 3.04 25.645m-49.95-25.645 3.91 25.645m-50.81-25.645 5.86 25.523m-52.77-25.523 8.9 25.279m-55.59-25.279 13.03 24.668m-59.94-24.668 18.24 23.569m-65.15-23.569 23.45 22.104m-70.36-22.104 28.67 20.028m-75.36-20.028 33.01 17.83m-79.92-17.83 36.48 15.387m-83.39-15.387 39.31 13.189m-86.22-13.189 41.26 11.113m-87.95-11.113 42.78 8.915m-89.689-8.915 44.086 6.717m-90.994-6.717 45.171 4.152m-91.863-4.152 45.606.977m-92.515-.977 45.389-3.052m-92.297 3.052 43.434-7.815m-90.343 7.816 39.308-13.067m-86 13.067 31.924-18.318m-78.832 18.317 21.282-22.713m-68.191 22.714 7.818-25.279m-54.727 25.279-6.949-25.401m-39.742 25.4-21.5-22.591m-25.409 22.591-33.661-17.462m-13.248 17.462-41.696-10.379m-5.212 10.379-45.389-2.686m-1.303 2.686-44.954 5.007m-1.955-5.007-40.611 11.724m-6.297-11.724-33.879 17.219m-13.03-17.219-25.626 21.249M93.6 842.971l-17.373 23.813m-29.536-23.813-9.555 25.157m1836.824 1.221 40.18 12.211m-87.09-12.211 26.93 20.76m-73.84-20.76 13.68 24.545m-60.37-24.545 4.34 25.522m-51.25-25.522.87 25.644m-47.78-25.644 3.26 25.644m-50.17-25.644 3.91 25.644m-50.6-25.644 3.91 25.522m-50.82-25.522 4.57 25.522m-51.47-25.522 5.86 25.522m-52.77-25.522 8.68 25.278m-55.37-25.278 12.16 24.667m-59.07-24.667 17.15 23.813m-64.06-23.813 22.58 22.347m-69.49-22.347 28.01 20.271m-74.7-20.271 32.79 17.829m-79.7-17.829 37.14 15.02m-84.05-15.02 40.39 11.967m-87.3-11.967 43 8.914m-89.69-8.914 44.52 5.739m-91.429-5.739 45.389 2.442m-92.297-2.442 45.605-1.099m-92.297 1.099 44.737-5.007m-91.646 5.007 42.566-9.403m-89.474 9.403 38.222-14.044m-85.131 14.044 31.707-18.562m-78.399 18.562 22.369-22.348m-69.277 22.348 10.641-25.034m-57.55 25.034-2.606-25.645m-44.303 25.645-16.07-24.057m-30.621 24.057-28.232-20.15m-18.677 20.15-37.788-14.532m-9.121 14.532-43.651-7.571m-3.257 7.571-45.606-.245m-1.086.245-44.086 6.838m-2.823-6.838-39.307 13.066m-7.602-13.066-32.358 18.073m-14.55-18.073-24.323 21.737M93.6 869.349l-16.287 24.057m-30.621-24.057-8.904 25.156m1836.172 1.221 41.05 11.235m-87.96-11.235 27.8 20.271m-74.71-20.271 14.34 24.423m-61.03-24.423 4.13 25.522m-51.04-25.522 1.74 25.644m-48.65-25.644 4.56 25.522m-51.47-25.522 5.65 25.4m-52.34-25.4 5.65 25.4m-52.56-25.4 5.87 25.4m-52.77-25.4 6.95 25.4m-53.86-25.4 9.12 25.156m-55.81-25.156 12.37 24.667m-59.28-24.667 16.72 23.813m-63.63-23.813 22.15 22.469m-69.06-22.469 27.8 20.393m-74.49-20.393 32.79 17.829m-79.7-17.829 37.57 14.532m-84.48-14.532 41.26 10.99m-88.17-10.99 43.87 7.083m-90.56-7.083 45.17 3.053m-92.079-3.053 45.606-1.099m-92.514 1.099 44.737-5.373m-91.429 5.373 42.131-9.892m-89.04 9.892 38.005-14.288m-84.913 14.288 31.707-18.44m-78.616 18.44 23.454-22.103m-70.146 22.103 12.813-24.668m-59.721 24.668 1.086-25.767m-47.995 25.767-11.293-24.912m-35.616 24.912-23.237-22.103m-23.454 22.103-33.445-17.585m-13.464 17.585-40.828-11.723m-6.081 11.723-44.737-5.007m-2.171 5.007-45.389 1.954m-1.303-1.954-43.217 8.548m-3.692-8.548-38.005 14.165m-8.903-14.165-31.056 18.806m-15.853-18.806-23.02 22.103M93.6 895.726l-15.202 24.179m-31.706-24.179-8.253 25.278m1835.521.977 41.26 10.99m-88.17-10.99 28.02 20.393m-74.93-20.393 13.9 24.545m-60.59-24.545 3.04 25.644m-49.95-25.644 3.48 25.644m-50.39-25.644 6.95 25.4m-53.86-25.4 8.04 25.278m-54.73-25.278 8.04 25.278m-54.95-25.278 8.26 25.278m-55.16-25.278 8.9 25.278m-55.81-25.278 10.64 25.034m-57.33-25.034 13.24 24.545m-60.15-24.545 17.37 23.813m-64.28-23.813 22.37 22.469m-69.28-22.469 28.01 20.393m-74.7-20.393 33.22 17.707m-80.13-17.707 38 14.288m-84.91-14.288 41.91 10.258m-88.82-10.258 44.74 5.739m-91.43-5.739 45.61 1.099m-92.519-1.099 45.172-3.786m-92.08 3.786 42.999-8.67m-89.691 8.67 38.874-13.311m-85.783 13.311 33.01-17.585m-79.918 17.585 25.409-21.248m-72.318 21.248 15.853-24.057m-62.545 24.057 4.778-25.522m-51.686 25.522-6.733-25.4m-40.176 25.4-18.242-23.447m-28.667 23.447-28.449-20.027m-18.242 20.027-37.136-15.02m-9.773 15.02-42.782-9.037m-4.127 9.037-45.388-2.442m-1.52 2.442-44.955 4.152m-1.737-4.152-42.131 10.258m-4.778-10.258-36.484 15.509m-10.424-15.509-29.318 19.783m-17.591-19.783-21.5 22.714M93.6 921.981l-14.116 24.545m-32.792-24.545-7.819 25.4m1835.087.977 40.83 11.601m-87.74-11.601 26.93 20.76m-73.84-20.76 12.16 24.79m-58.85-24.79.65 25.645m-47.56-25.645 6.52 25.4m-53.43-25.4 10.21 25.034m-57.12-25.034 11.73 24.912m-58.42-24.912 11.73 24.79m-58.64-24.79 11.73 24.79m-58.63-24.79 12.16 24.79m-59.07-24.79 13.46 24.546m-60.15-24.546 15.63 24.179m-62.54-24.179 19.32 23.324m-66.23-23.324 23.89 21.981m-70.8-21.981 28.88 19.905m-75.57-19.905 34.09 17.096m-81-17.096 38.87 13.555m-85.78-13.555 42.57 9.281m-89.48-9.281 45.17 4.396m-91.86-4.396 45.61-.733m-92.519.733 44.303-5.983m-91.211 5.983 41.262-11.112m-87.954 11.112 35.833-15.875m-82.742 15.875 28.667-19.905m-75.575 19.905 19.762-23.08m-66.671 23.08 9.555-25.156m-56.247 25.156-1.737-25.644m-45.171 25.644-13.031-24.545m-33.878 24.545-23.672-21.981m-23.237 21.981-32.575-17.829m-14.116 17.829-39.742-12.578m-7.167 12.578-44.086-6.594m-2.823 6.594-45.605-.244m-1.303.244-44.303 6.106m-2.389-6.106-40.611 11.845m-6.298-11.845-34.747 16.73m-12.161-16.73-27.581 20.516m-19.328-20.516-19.98 23.08M93.6 948.358l-13.03 24.668m-33.878-24.668-7.601 25.4m1834.869.977 39.09 13.189m-86-13.189 24.11 21.737m-71.02-21.737 8.69 25.156m-55.38-25.156 3.26 25.645m-50.17-25.645 10.86 24.912m-57.77-24.912 14.77 24.302m-61.68-24.302 16.73 23.935m-63.42-23.935 16.73 23.813m-63.64-23.813 16.73 23.813m-63.63-23.813 16.94 23.813m-63.85-23.813 17.8 23.691m-64.49-23.691 19.54 23.203m-66.45-23.203 22.37 22.348m-69.28-22.348 26.49 21.004m-73.4-21.004 31.05 18.928m-77.74-18.928 35.61 15.998m-82.52-15.998 39.96 12.334m-86.87-12.334 43.43 7.938m-90.34-7.938 45.39 2.809m-92.08-2.809 45.39-2.564m-92.299 2.564 43.434-8.059m-90.342 8.059 39.307-13.188m-85.999 13.188 32.793-17.829m-79.702 17.829 24.541-21.614m-71.449 21.614 14.767-24.301m-61.676 24.301 3.909-25.644m-50.601 25.644-7.383-25.4m-39.525 25.4-18.243-23.568m-28.666 23.568-28.015-20.271m-18.894 20.271-36.05-15.753m-10.641 15.753-41.914-10.257m-4.995 10.257-45.171-4.152m-1.738 4.152-45.388 2.198m-1.521-2.198-43.216 8.182m-3.475-8.182-38.873 13.555m-8.036-13.555-32.575 17.952m-14.333-17.952-25.409 21.371m-21.5-21.371-18.242 23.569M93.6 974.735l-12.161 24.79m-34.747-24.79-7.819 25.275m1835.087 1.1 35.83 15.88m-82.74-15.88 19.33 23.2m-66.24-23.2 3.04 25.65m-49.73-25.65 8.9 25.16m-55.81-25.16 16.72 23.82m-63.63-23.82 21.07 22.84m-67.98-22.84 22.81 22.23m-69.5-22.23 23.24 22.11m-70.15-22.11 23.24 22.11m-70.14-22.11 23.23 22.11m-70.14-22.11 23.67 21.98m-70.36-21.98 24.97 21.5m-71.88-21.5 27.14 20.52m-74.05-20.52 30.4 19.05m-77.31-19.05 34.31 16.98m-81-16.98 38.22 14.05m-85.13-14.05 41.91 10.26m-88.82-10.26 44.52 5.74m-91.43-5.74 45.82.61m-92.51-.61 44.74-4.882m-91.649 4.882 41.914-10.255m-88.822 10.255 36.701-15.384m-83.393 15.384 29.101-19.78m-76.01 19.78 19.98-23.077m-66.888 23.077 9.555-25.153m-56.464 25.153-1.52-25.764m-45.172 25.764-12.813-24.665m-34.095 24.665-23.237-22.223m-23.672 22.223-32.141-18.315m-14.768 18.315-39.09-13.308m-7.601 13.308-43.869-7.446m-3.04 7.446-45.606-1.341m-1.303 1.341-44.737 4.77m-2.171-4.77-41.697 10.5m-4.995-10.5-36.702 15.39m-10.207-15.39-30.186 19.3m-16.722-19.3-23.238 22.11m-23.671-22.11-16.722 23.82m-29.97-23.82-11.727 24.79m-35.182-24.79-8.47 25.16m1835.739 1.1 29.97 19.41m-76.88-19.41 11.73 24.91m-58.64-24.91 5 25.64m-51.69-25.64 16.72 23.93m-63.63-23.93 24.11 21.86m-71.02-21.86 28.24 20.27m-75.15-20.27 30.19 19.41m-76.88-19.41 30.62 19.05m-77.53-19.05 30.63 19.05m-77.53-19.05 30.62 19.17m-77.53-19.17 30.84 19.05m-77.53-19.05 31.49 18.56m-78.4-18.56 33.22 17.58m-80.13-17.58 35.61 16.12m-82.52-16.12 38.66 13.8m-85.35-13.8 41.48 10.87m-88.39-10.87 43.87 7.08m-90.78-7.08 45.61 2.56m-92.52-2.56 45.61-2.57m-92.3 2.57 43.43-7.82m-90.339 7.82 39.308-13.07m-86.216 13.07 33.01-17.71m-79.702 17.71 24.54-21.62m-71.449 21.62 14.551-24.3m-61.459 24.3 3.692-25.52m-50.601 25.52-7.601-25.28m-39.091 25.28-18.676-23.45m-28.232 23.45-28.232-20.15m-18.677 20.15-36.267-15.63m-10.642 15.63-41.914-10.14m-4.777 10.14-45.172-4.15m-1.737 4.15-45.606 1.95m-1.303-1.95-43.434 7.81m-3.475-7.81-39.307 13.06m-7.384-13.06-33.879 17.34m-13.03-17.34-27.363 20.64m-19.546-20.64-20.848 22.83m-26.06-22.83-15.202 24.18m-31.49-24.18-11.51 24.91m-35.398-24.91-9.99 25.15m1837.258 1.22 20.41 22.96m-67.32-22.96 1.09 25.65m-48-25.65 14.99 24.31m-61.68-24.31 25.63 21.25m-72.54-21.25 32.36 18.2m-79.27-18.2 35.84 16m-82.75-16 37.58 14.78m-84.27-14.78 38.01 14.29m-84.92-14.29 38.01 14.17m-84.91-14.17 38 14.29m-84.91-14.29 38.22 14.17m-84.91-14.17 38.65 13.68m-85.56-13.68 39.74 12.7m-86.65-12.7 41.26 11.12m-88.17-11.12 43 8.92m-89.69-8.92 44.52 5.87m-91.43-5.87 45.6 2.08m-92.51-2.08 45.61-2.32m-92.52 2.32 44.09-7.08m-90.78 7.08 40.39-11.96m-87.299 11.96 34.748-16.6m-81.656 16.6 27.146-20.63m-73.838 20.63 17.591-23.69m-64.5 23.69 7.167-25.4m-54.075 25.4-4.126-25.52m-42.783 25.52-14.985-24.17m-31.707 24.17-25.408-21.37m-21.5 21.37-33.879-17.21m-13.03 17.21-40.177-12.08m-6.732 12.08-44.302-6.22m-2.389 6.22-45.823-.24m-1.086.24-44.52 5.74m-2.389-5.74-41.262 11m-5.646-11-36.268 15.64m-10.424-15.64-30.404 19.18m-16.505-19.18-24.323 21.74m-22.586-21.74-18.676 23.45m-28.232-23.45-14.333 24.43M93.6 1053.74l-12.161 24.79m-34.747-24.79-12.596 24.67"/></g><defs><clipPath id="a"><path fill="#fff" d="M0 0h1920v1080H0z"/></clipPath></defs></svg>