<svg width="45" height="45" viewBox="0 0 45 45" fill="none" xmlns="http://www.w3.org/2000/svg">
<path d="M35.1779 35.6634C36.9495 33.9592 38.3589 31.9149 39.3216 29.653C40.2842 27.3912 40.7805 24.9582 40.7805 22.5C40.7805 20.0418 40.2842 17.6088 39.3216 15.3469C38.3589 13.085 36.9495 11.0408 35.1779 9.33655M9.82228 9.33655C8.05068 11.0408 6.64132 13.085 5.67863 15.3469C4.71594 17.6088 4.21973 20.0418 4.21973 22.5C4.21973 24.9582 4.71594 27.3912 5.67863 29.653C6.64132 31.9149 8.05068 33.9592 9.82228 35.6634M18.4885 33.8644C15.1463 31.725 14.6776 29.6531 14.6776 27.045C14.6776 23.1009 21.4745 16.0809 21.4745 12.7828C21.4807 12.1032 21.3831 11.4266 21.1848 10.7765C23.3101 12.3253 26.1995 15.0562 26.1995 19.0678C26.2824 20.4103 26.0295 21.7523 25.4635 22.9725C26.058 22.9197 26.6227 22.689 27.084 22.3103C27.5452 21.9317 27.8816 21.4228 28.0492 20.85C29.8876 22.7437 30.3226 24.4153 30.3226 27.045C30.1915 28.421 29.7504 29.7494 29.0324 30.9305C28.3144 32.1115 27.3382 33.1146 26.177 33.8644C26.685 33.3799 27.0861 32.7947 27.3548 32.1462C27.6234 31.4977 27.7536 30.8002 27.737 30.0984C27.737 28.5609 26.4892 28.8056 25.8432 28.8056C25.4712 28.7912 25.1063 28.7002 24.771 28.5383C24.4358 28.3765 24.1376 28.1472 23.895 27.8649C23.6525 27.5825 23.4707 27.2531 23.3612 26.8974C23.2517 26.5416 23.2167 26.1671 23.2585 25.7972C23.2585 23.1234 24.016 22.0537 22.9238 19.9584C21.7651 23.279 17.7095 25.8862 17.7095 30.3431C17.6713 31.5635 17.9392 32.774 18.4885 33.8644Z" stroke="#F6BE8A" stroke-width="2"/>
</svg>
